0
SECTION
2
HEADER
9
$ACADVER
1
AC1009
9
$INSUNITS
70
6
0
ENDSEC
0
SECTION
2
TABLES
0
TABLE
2
LTYPE
70
1
0
LTYPE
2
CONTINUOUS
70
0
3
Solid line
72
65
73
0
40
0.0
0
ENDTAB
0
TABLE
2
LAYER
70
3
0
LAYER
2
WALL
70
0
62
7
6
CONTINUOUS
0
LAYER
2
OPEN
70
0
62
3
6
CONTINUOUS
0
LAYER
2
PART
70
0
62
2
6
CONTINUOUS
0
ENDTAB
0
ENDSEC
0
SECTION
2
ENTITIES
0
LINE
8
WALL
10
0.0
20
0.0
30
0.0
11
7.12
21
0.0
31
0.0
0
LINE
8
WALL
10
7.12
20
0.0
30
0.0
11
7.12
21
23.30
31
0.0
0
LINE
8
WALL
10
7.12
20
23.30
30
0.0
11
0.0
21
23.30
31
0.0
0
LINE
8
WALL
10
0.0
20
23.30
30
0.0
11
0.0
21
0.0
31
0.0
0
LINE
8
WALL
10
0.30
20
0.30
30
0.0
11
6.82
21
0.30
31
0.0
0
LINE
8
WALL
10
6.82
20
0.30
30
0.0
11
6.82
21
23.00
31
0.0
0
LINE
8
WALL
10
6.82
20
23.00
30
0.0
11
0.30
21
23.00
31
0.0
0
LINE
8
WALL
10
0.30
20
23.00
30
0.0
11
0.30
21
0.30
31
0.0
0
LINE
8
OPEN
10
0.00
20
23.30
30
0.0
11
2.60
21
23.30
31
0.0
0
LINE
8
OPEN
10
3.00
20
23.30
30
0.0
11
6.90
21
23.30
31
0.0
0
LINE
8
OPEN
10
6.90
20
23.30
30
0.0
11
7.12
21
23.30
31
0.0
0
LINE
8
PART
10
0.00
20
15.10
30
0.0
11
3.20
21
15.10
31
0.0
0
LINE
8
PART
10
3.20
20
15.10
30
0.0
11
3.20
21
23.30
31
0.0
0
LINE
8
PART
10
3.20
20
23.30
30
0.0
11
0.00
21
23.30
31
0.0
0
LINE
8
PART
10
0.00
20
23.30
30
0.0
11
0.00
21
15.10
31
0.0
0
LINE
8
PART
10
3.20
20
23.30
30
0.0
11
4.50
21
23.30
31
0.0
0
LINE
8
PART
10
3.20
20
15.10
30
0.0
11
4.50
21
15.10
31
0.0
0
LINE
8
PART
10
3.20
20
23.30
30
0.0
11
3.20
21
21.90
31
0.0
0
LINE
8
PART
10
3.20
20
15.10
30
0.0
11
3.20
21
16.45
31
0.0
0
LINE
8
PART
10
4.50
20
23.30
30
0.0
11
4.50
21
21.95
31
0.0
0
LINE
8
PART
10
4.50
20
15.10
30
0.0
11
4.50
21
16.50
31
0.0
0
LINE
8
PART
10
3.92
20
0.00
30
0.0
11
7.12
21
0.00
31
0.0
0
LINE
8
PART
10
7.12
20
0.00
30
0.0
11
7.12
21
3.20
31
0.0
0
LINE
8
PART
10
7.12
20
3.20
30
0.0
11
3.92
21
3.20
31
0.0
0
LINE
8
PART
10
3.92
20
3.20
30
0.0
11
3.92
21
0.00
31
0.0
0
LINE
8
PART
10
5.52
20
0.00
30
0.0
11
5.52
21
3.20
31
0.0
0
LINE
8
PART
10
5.52
20
1.60
30
0.0
11
7.12
21
1.60
31
0.0
0
ENDSEC
0
EOF
